Normalized EMG Linear Envelopes
nRows=250
nColumns=4

endheader
time	 med_gas_r	  soleus_r	 tib_ant_r	
2.76091	  0.105066	  0.065486	  0.027383	
2.79418	  0.110267	  0.064647	  0.026388	
2.82744	  0.113639	  0.064106	  0.025627	
2.8607	  0.114353	  0.063977	  0.025229	
2.89397	  0.112884	  0.064340	  0.025225	
2.92723	  0.110344	  0.065205	  0.025544	
2.9605	  0.107598	  0.066448	  0.026034	
2.99376	  0.104959	  0.067784	  0.026503	
3.02702	  0.102587	  0.068852	  0.026777	
3.06029	  0.100956	  0.069385	  0.026758	
3.09355	  0.100768	  0.069332	  0.026469	
3.12682	  0.102370	  0.068846	  0.026034	
3.16008	  0.105261	  0.068144	  0.025610	
3.19334	  0.108250	  0.067385	  0.025310	
3.22661	  0.110188	  0.066656	  0.025154	
3.25987	  0.110695	  0.066048	  0.025100	
3.29314	  0.110296	  0.065697	  0.025107	
3.3264	  0.109931	  0.065734	  0.025185	
3.35966	  0.110292	  0.066197	  0.025382	
3.39293	  0.111469	  0.066996	  0.025728	
3.42619	  0.113013	  0.067966	  0.026184	
3.45946	  0.114221	  0.068940	  0.026635	
3.49272	  0.114458	  0.069793	  0.026947	
3.52598	  0.113465	  0.070447	  0.027041	
3.55925	  0.111548	  0.070853	  0.026924	
3.59251	  0.109492	  0.070966	  0.026668	
3.62578	  0.108093	  0.070743	  0.026345	
3.65904	  0.107539	  0.070173	  0.025979	
3.6923	  0.107119	  0.069331	  0.025559	
3.72557	  0.105629	  0.068410	  0.025095	
3.75883	  0.102261	  0.067664	  0.024635	
3.7921	  0.097279	  0.067309	  0.024243	
3.82536	  0.091923	  0.067453	  0.023945	
3.85862	  0.087631	  0.068087	  0.023730	
3.89189	  0.085228	  0.069121	  0.023582	
3.92515	  0.084630	  0.070417	  0.023526	
3.95842	  0.085202	  0.071808	  0.023608	
3.99168	  0.086395	  0.073099	  0.023848	
4.02494	  0.088117	  0.074088	  0.024200	
4.05821	  0.090581	  0.074601	  0.024564	
4.09147	  0.093853	  0.074541	  0.024840	
4.12474	  0.097613	  0.073930	  0.024954	
4.158	  0.101352	  0.072898	  0.024865	
4.19126	  0.104700	  0.071621	  0.024548	
4.22453	  0.107503	  0.070237	  0.023987	
4.25779	  0.109609	  0.068800	  0.023189	
4.29106	  0.110752	  0.067286	  0.022210	
4.32432	  0.110763	  0.065657	  0.021157	
4.35758	  0.109942	  0.063932	  0.020188	
4.39085	  0.109165	  0.062218	  0.019490	
4.42411	  0.109512	  0.060699	  0.019279	
4.45738	  0.111569	  0.059610	  0.019818	
4.49064	  0.114901	  0.059190	  0.021464	
4.5239	  0.118137	  0.059649	  0.024748	
4.55717	  0.119743	  0.061116	  0.030396	
4.59043	  0.119012	  0.063592	  0.039219	
4.6237	  0.116533	  0.066939	  0.051814	
4.65696	  0.113771	  0.070911	  0.068228	
4.69022	  0.112119	  0.075254	  0.087868	
4.72349	  0.112196	  0.079845	  0.109896	
4.75675	  0.113823	  0.084809	  0.133845	
4.79002	  0.116484	  0.090488	  0.159838	
4.82328	  0.119770	  0.097216	  0.187956	
4.85654	  0.123497	  0.104995	  0.217175	
4.88981	  0.127586	  0.113305	  0.244931	
4.92307	  0.131905	  0.121230	  0.268013	
4.95634	  0.136225	  0.127874	  0.284334	
4.9896	  0.140274	  0.132786	  0.294248	
5.02286	  0.143816	  0.136123	  0.300385	
5.05613	  0.146622	  0.138476	  0.306130	
5.08939	  0.148416	  0.140525	  0.313783	
5.12266	  0.149016	  0.142731	  0.323506	
5.15592	  0.148682	  0.145177	  0.333581	
5.18918	  0.148208	  0.147571	  0.341656	
5.22245	  0.148443	  0.149410	  0.346119	
5.25571	  0.149514	  0.150252	  0.346674	
5.28898	  0.150593	  0.149959	  0.343931	
5.32224	  0.150620	  0.148744	  0.338615	
5.3555	  0.149489	  0.147022	  0.331215	
5.38877	  0.148648	  0.145209	  0.322224	
5.42203	  0.150410	  0.143610	  0.312476	
5.4553	  0.156388	  0.142391	  0.303007	
5.48856	  0.166258	  0.141527	  0.294521	
5.52182	  0.177857	  0.140788	  0.286941	
5.55509	  0.188537	  0.139851	  0.279509	
5.58835	  0.196666	  0.138535	  0.271326	
5.62162	  0.202124	  0.136983	  0.261877	
5.65488	  0.205586	  0.135604	  0.251235	
5.68814	  0.207400	  0.134846	  0.239986	
5.72141	  0.207135	  0.134990	  0.229075	
5.75467	  0.204132	  0.136124	  0.219592	
5.78794	  0.198476	  0.138231	  0.212466	
5.8212	  0.191390	  0.141243	  0.208188	
5.85446	  0.184669	  0.144999	  0.206764	
5.88773	  0.179634	  0.149207	  0.207923	
5.92099	  0.176477	  0.153502	  0.211302	
5.95426	  0.174511	  0.157579	  0.216404	
5.98752	  0.173075	  0.161247	  0.222432	
6.02078	  0.172393	  0.164365	  0.228303	
6.05405	  0.173743	  0.166716	  0.232993	
6.08731	  0.178794	  0.167949	  0.236003	
6.12058	  0.188532	  0.167695	  0.237642	
6.15384	  0.202558	  0.165841	  0.238939	
6.1871	  0.219262	  0.162790	  0.241259	
6.22037	  0.236763	  0.159462	  0.245828	
6.25363	  0.253839	  0.156992	  0.253307	
6.2869	  0.270035	  0.156319	  0.263533	
6.32016	  0.284902	  0.157936	  0.275599	
6.35342	  0.297219	  0.161853	  0.288366	
6.38669	  0.305162	  0.167710	  0.301152	
6.41995	  0.307381	  0.174890	  0.314147	
6.45322	  0.303956	  0.182652	  0.328290	
6.48648	  0.296309	  0.190227	  0.344792	
6.51974	  0.286219	  0.196875	  0.364621	
6.55301	  0.274913	  0.201932	  0.387976	
6.58627	  0.263058	  0.204972	  0.413650	
6.61954	  0.251448	  0.206047	  0.438636	
6.6528	  0.241516	  0.205778	  0.458694	
6.68606	  0.234972	  0.205088	  0.470132	
6.71933	  0.232754	  0.204733	  0.471729	
6.75259	  0.234238	  0.205017	  0.465203	
6.78586	  0.237493	  0.205843	  0.453739	
6.81912	  0.240427	  0.206880	  0.439802	
6.85238	  0.241841	  0.207608	  0.424010	
6.88565	  0.241615	  0.207344	  0.405727	
6.91891	  0.240168	  0.205451	  0.384567	
6.95218	  0.237909	  0.201685	  0.361458	
6.98544	  0.235088	  0.196373	  0.338502	
7.0187	  0.231947	  0.190257	  0.317940	
7.05197	  0.228938	  0.184140	  0.301126	
7.08523	  0.226853	  0.178617	  0.288180	
7.1185	  0.226712	  0.174004	  0.278356	
7.15176	  0.229220	  0.170396	  0.270641	
7.18502	  0.234046	  0.167733	  0.264164	
7.21829	  0.239639	  0.165833	  0.258372	
7.25155	  0.244103	  0.164461	  0.253153	
7.28482	  0.246563	  0.163468	  0.248905	
7.31808	  0.247796	  0.162904	  0.246385	
7.35134	  0.249482	  0.162981	  0.246297	
7.38461	  0.252815	  0.163939	  0.248936	
7.41787	  0.257745	  0.165961	  0.254277	
7.45114	  0.263293	  0.169207	  0.262367	
7.4844	  0.268279	  0.173812	  0.273441	
7.51766	  0.271706	  0.179694	  0.287394	
7.55093	  0.272815	  0.186266	  0.303101	
7.58419	  0.271224	  0.192387	  0.318365	
7.61746	  0.267138	  0.196715	  0.330787	
7.65072	  0.261291	  0.198278	  0.338945	
7.68398	  0.254651	  0.196879	  0.343062	
7.71725	  0.248266	  0.193144	  0.344790	
7.75051	  0.243342	  0.188273	  0.346352	
7.78378	  0.241146	  0.183643	  0.349549	
7.81704	  0.242465	  0.180358	  0.355048	
7.8503	  0.247033	  0.178898	  0.362280	
7.88357	  0.253592	  0.179076	  0.369960	
7.91683	  0.260676	  0.180350	  0.376914	
7.9501	  0.267403	  0.182205	  0.382644	
7.98336	  0.273583	  0.184296	  0.387276	
8.01662	  0.279193	  0.186295	  0.390997	
8.04989	  0.283946	  0.187765	  0.393444	
8.08315	  0.287414	  0.188311	  0.393604	
8.11642	  0.289416	  0.187911	  0.390431	
8.14968	  0.290105	  0.187092	  0.383725	
8.18294	  0.289669	  0.186710	  0.374519	
8.21621	  0.288141	  0.187510	  0.364691	
8.24947	  0.285607	  0.189842	  0.356222	
8.28274	  0.282543	  0.193671	  0.350630	
8.316	  0.279776	  0.198737	  0.348709	
8.34926	  0.278052	  0.204602	  0.350451	
8.38253	  0.277695	  0.210553	  0.355072	
8.41579	  0.278658	  0.215532	  0.361180	
8.44906	  0.280766	  0.218270	  0.367030	
8.48232	  0.283776	  0.217719	  0.370927	
8.51558	  0.287256	  0.213610	  0.371776	
8.54885	  0.290605	  0.206794	  0.369585	
8.58211	  0.293317	  0.199050	  0.365463	
8.61538	  0.295214	  0.192396	  0.360917	
8.64864	  0.296396	  0.188312	  0.356963	
8.6819	  0.297016	  0.187317	  0.353753	
8.71517	  0.297221	  0.189040	  0.350856	
8.74843	  0.297287	  0.192595	  0.347667	
8.7817	  0.297620	  0.197007	  0.343598	
8.81496	  0.298407	  0.201558	  0.338229	
8.84822	  0.299260	  0.205983	  0.331712	
8.88149	  0.299378	  0.210413	  0.325118	
8.91475	  0.298191	  0.215094	  0.320107	
8.94802	  0.295849	  0.220114	  0.317914	
8.98128	  0.293004	  0.225420	  0.318469	
9.01454	  0.290160	  0.231054	  0.320563	
9.04781	  0.287274	  0.237226	  0.322982	
9.08107	  0.283983	  0.243936	  0.325593	
9.11434	  0.280082	  0.250464	  0.329476	
9.1476	  0.275713	  0.255347	  0.336094	
9.18086	  0.271138	  0.257013	  0.346281	
9.21413	  0.266506	  0.254573	  0.359705	
9.24739	  0.261934	  0.248134	  0.374956	
9.28066	  0.257760	  0.238623	  0.389983	
9.31392	  0.254554	  0.227506	  0.402764	
9.34718	  0.252846	  0.216610	  0.412072	
9.38045	  0.252887	  0.207807	  0.417897	
9.41371	  0.254659	  0.202436	  0.420996	
9.44698	  0.257991	  0.200786	  0.421813	
9.48024	  0.262575	  0.202127	  0.419875	
9.5135	  0.267984	  0.205346	  0.414454	
9.54677	  0.273842	  0.209662	  0.405897	
9.58003	  0.280056	  0.214830	  0.396251	
9.6133	  0.286779	  0.220765	  0.388434	
9.64656	  0.294004	  0.227127	  0.384565	
9.67982	  0.301209	  0.233385	  0.384683	
9.71309	  0.307498	  0.239215	  0.386697	
9.74635	  0.312129	  0.244598	  0.387415	
9.77962	  0.314815	  0.249299	  0.383784	
9.81288	  0.315477	  0.252220	  0.373577	
9.84614	  0.313822	  0.251446	  0.355470	
9.87941	  0.309353	  0.245112	  0.329069	
9.91267	  0.301915	  0.232407	  0.295254	
9.94594	  0.292256	  0.213956	  0.256444	
9.9792	  0.282055	  0.191468	  0.216164	
10.0125	  0.273252	  0.167120	  0.177876	
10.0457	  0.267047	  0.143115	  0.143866	
10.079	  0.263168	  0.121456	  0.114989	
10.1123	  0.259993	  0.103764	  0.091253	
10.1455	  0.255614	  0.091026	  0.072532	
10.1788	  0.249204	  0.083410	  0.058763	
10.212	  0.241608	  0.080288	  0.049671	
10.2453	  0.234590	  0.080497	  0.044521	
10.2786	  0.229426	  0.082710	  0.042234	
10.3118	  0.226165	  0.085741	  0.041751	
10.3451	  0.224157	  0.088711	  0.042296	
10.3784	  0.223044	  0.091061	  0.043361	
10.4116	  0.223066	  0.092461	  0.044542	
10.4449	  0.224480	  0.092712	  0.045476	
10.4782	  0.226968	  0.091694	  0.045902	
10.5114	  0.229746	  0.089410	  0.045746	
10.5447	  0.232145	  0.086075	  0.045081	
10.578	  0.233894	  0.082163	  0.043997	
10.6112	  0.234805	  0.078326	  0.042517	
10.6445	  0.234391	  0.075215	  0.040634	
10.6777	  0.232085	  0.073317	  0.038426	
10.711	  0.227961	  0.072879	  0.036110	
10.7443	  0.223109	  0.073907	  0.033986	
10.7775	  0.219039	  0.076149	  0.032299	
10.8108	  0.216627	  0.079081	  0.031141	
10.8441	  0.215681	  0.081986	  0.030448	
10.8773	  0.215503	  0.084197	  0.030073	
10.9106	  0.215665	  0.085370	  0.029885	
10.9439	  0.216154	  0.085581	  0.029818	
10.9771	  0.216966	  0.085174	  0.029856	
11.0104	  0.217890	  0.084481	  0.029982	
11.0436	  0.218726	  0.083671	  0.030157	
